<svg xmlns="http://www.w3.org/2000/svg" width="60" height="60" viewBox="10 10 60 60" fill="none">
  <path 
    d="M23.2494 23H60L55 40.5H25.9418M57.5 50.5H27.5L22.5 18H15M30 60.5C30 61.8807 28.8807 63 27.5 63C26.1193 63 25 61.8807 25 60.5C25 59.1193 26.1193 58 27.5 58C28.8807 58 30 59.1193 30 60.5ZM57.5 60.5C57.5 61.8807 56.3807 63 55 63C53.6193 63 52.5 61.8807 52.5 60.5C52.5 59.1193 53.6193 58 55 58C56.3807 58 57.5 59.1193 57.5 60.5Z"
    stroke="white"
    stroke-width="2.9" 
    stroke-linecap="round" 
    stroke-linejoin="round"
  />
</svg>